# xmcd
#
# Track frame offsets:
#	150
#	16970
#	32758
#	50325
#	71861
#	85981
#	103424
#	118421
#	136587
#	153234
#	166829
#	181601
#	196525
#	213752
#	214825
#	215566
#	216347
#	217031
#	217851
#	218662
#	219452
#	220221
#	221089
#	221954
#	222640
#	223329
#	223983
#	224736
#	225467
#	226184
#	226892
#	227733
#	228685
#	229339
#	229983
#	230635
#	231378
#	232130
#	232845
#	233600
#
# Disc length: 3122 seconds
#
# Revision: 1
# Processed by: cddbd v1.5.2PL0 Copyright (c) Steve Scherf et al.
# Submitted via: audiograbber 1.83.01
#
DISCID=7b0c3028
DTITLE=Various Artist - CDX Volume 650 (July 3, 2017)
DYEAR=2017
DGENRE=Country
TTITLE0=Shania Twain - Life's About To Get Good
TTITLE1=Dierks Bentley - What The Hell Did I Say
TTITLE2=Little Big Town - When Someone Stops Loving You
TTITLE3=Nitty Gritty GR - 3 Up 1 Down
TTITLE4=Shane Owens - 19
TTITLE5=Night Owl Country Band - Cool Gentle Wind
TTITLE6=Candy Fernaux - Gone Fishin'
TTITLE7=Jeff Lewis and Norm Cady - Land of Dreams
TTITLE8=Cody Jinks - No Words
TTITLE9=Dustin Collins - Peices
TTITLE10=Jagertown - Small Town Superstars
TTITLE11=Rusty Rierson - Upon This Rock
TTITLE12=Mary Sarah - Without You
TTITLE13=George Allen Truax - Radio Liner - My New Single
TTITLE14=George Allen Truax - Radio Liner - Today's Best Country
TTITLE15=George Allen Truax - Radio Liner - Kickin' Country
TTITLE16=George Allen Truax - Radio Liner - Hometown Country
TTITLE17=George Allen Truax - Radio Liner - Super Country
TTITLE18=George Allen Truax - Radio Liner - Today's Hot Country
TTITLE19=George Allen Truax - Radio Liner - Best In Today's Country
TTITLE20=George Allen Truax - Radio Liner - More of the Country You Love
TTITLE21=George Allen Truax - Radio Liner - Howlin' Country
TTITLE22=Maddie Wilson - Radio Liner - My New Single
TTITLE23=Maddie Wilson - Radio Liner - Today's Best Country
TTITLE24=Maddie Wilson - Radio Liner - Kickin' Country
TTITLE25=Maddie Wilson - Radio Liner - Hometown Country
TTITLE26=Maddie Wilson - Radio Liner - Super Country
TTITLE27=Maddie Wilson - Radio Liner - Today's Hot Country
TTITLE28=Maddie Wilson - Radio Liner - Best In Today's Country
TTITLE29=Maddie Wilson - Radio Liner - More of the Country You Love
TTITLE30=Maddie Wilson - Radio Liner - Howlin' Country
TTITLE31=Scott Coner - Radio Liner - My New Duet
TTITLE32=Scott Coner - Radio Liner - Today's Best Country
TTITLE33=Scott Coner - Radio Liner - Kickin' Country
TTITLE34=Scott Coner - Radio Liner - Hometown Country
TTITLE35=Scott Coner - Radio Liner - Super Country
TTITLE36=Scott Coner - Radio Liner - Today's Hot Country
TTITLE37=Scott Coner - Radio Liner - Best In Today's Country
TTITLE38=Scott Coner - Radio Liner - More of the Country You Love
TTITLE39=Scott Coner - Radio Liner - Howlin' Country
EXTD=
EXTT0=
EXTT1=
EXTT2=
EXTT3=
EXTT4=
EXTT5=
EXTT6=
EXTT7=
EXTT8=
EXTT9=
EXTT10=
EXTT11=
EXTT12=
EXTT13=
EXTT14=
EXTT15=
EXTT16=
EXTT17=
EXTT18=
EXTT19=
EXTT20=
EXTT21=
EXTT22=
EXTT23=
EXTT24=
EXTT25=
EXTT26=
EXTT27=
EXTT28=
EXTT29=
EXTT30=
EXTT31=
EXTT32=
EXTT33=
EXTT34=
EXTT35=
EXTT36=
EXTT37=
EXTT38=
EXTT39=
PLAYORDER=
